<svg xmlns="http://www.w3.org/2000/svg" xmlns:xlink="http://www.w3.org/1999/xlink" width="2000" zoomAndPan="magnify" viewBox="0 0 1500 1499.999933" height="2000" preserveAspectRatio="xMidYMid meet" version="1.0"><defs><g/><clipPath id="9f605d7704"><path d="M 663.507812 954.734375 L 805 954.734375 L 805 1036.460938 L 663.507812 1036.460938 Z M 663.507812 954.734375 " clip-rule="nonzero"/></clipPath><clipPath id="d50328767f"><path d="M 704.367188 954.734375 L 764.078125 954.734375 C 774.914062 954.734375 785.308594 959.039062 792.972656 966.703125 C 800.636719 974.367188 804.941406 984.761719 804.941406 995.597656 C 804.941406 1006.433594 800.636719 1016.828125 792.972656 1024.492188 C 785.308594 1032.152344 774.914062 1036.460938 764.078125 1036.460938 L 704.367188 1036.460938 C 693.53125 1036.460938 683.136719 1032.152344 675.476562 1024.492188 C 667.8125 1016.828125 663.507812 1006.433594 663.507812 995.597656 C 663.507812 984.761719 667.8125 974.367188 675.476562 966.703125 C 683.136719 959.039062 693.53125 954.734375 704.367188 954.734375 Z M 704.367188 954.734375 " clip-rule="nonzero"/></clipPath><clipPath id="ed3982ccdd"><path d="M 0.507812 0.734375 L 141.960938 0.734375 L 141.960938 82.460938 L 0.507812 82.460938 Z M 0.507812 0.734375 " clip-rule="nonzero"/></clipPath><clipPath id="e51b195451"><path d="M 41.367188 0.734375 L 101.078125 0.734375 C 111.914062 0.734375 122.308594 5.039062 129.972656 12.703125 C 137.636719 20.367188 141.941406 30.761719 141.941406 41.597656 C 141.941406 52.433594 137.636719 62.828125 129.972656 70.492188 C 122.308594 78.152344 111.914062 82.460938 101.078125 82.460938 L 41.367188 82.460938 C 30.53125 82.460938 20.136719 78.152344 12.476562 70.492188 C 4.8125 62.828125 0.507812 52.433594 0.507812 41.597656 C 0.507812 30.761719 4.8125 20.367188 12.476562 12.703125 C 20.136719 5.039062 30.53125 0.734375 41.367188 0.734375 Z M 41.367188 0.734375 " clip-rule="nonzero"/></clipPath><clipPath id="ad1f6446cc"><rect x="0" width="142" y="0" height="83"/></clipPath><clipPath id="78bb9e3ec7"><path d="M 364.1875 850 L 664 850 L 664 1071 L 364.1875 1071 Z M 364.1875 850 " clip-rule="nonzero"/></clipPath><clipPath id="a39db7a7ba"><path d="M 657 435.457031 L 794.6875 435.457031 L 794.6875 566 L 657 566 Z M 657 435.457031 " clip-rule="nonzero"/></clipPath><clipPath id="26eb2168bf"><path d="M 360 427 L 521 427 L 521 549 L 360 549 Z M 360 427 " clip-rule="nonzero"/></clipPath><clipPath id="0c0fb416a3"><path d="M 344.78125 479.261719 L 504.390625 396.046875 L 558.828125 500.460938 L 399.214844 583.675781 Z M 344.78125 479.261719 " clip-rule="nonzero"/></clipPath><clipPath id="048cc9fa2d"><path d="M 344.78125 479.261719 L 504.390625 396.046875 L 558.828125 500.460938 L 399.214844 583.675781 Z M 344.78125 479.261719 " clip-rule="nonzero"/></clipPath><clipPath id="8b208658a5"><path d="M 316 175 L 428 175 L 428 328.359375 L 316 328.359375 Z M 316 175 " clip-rule="nonzero"/></clipPath><clipPath id="a7252f7bc9"><rect x="0" width="456" y="0" height="329"/></clipPath><clipPath id="fd9819f38c"><rect x="0" width="98" y="0" height="65"/></clipPath></defs><g clip-path="url(#9f605d7704)"><g clip-path="url(#d50328767f)"><g transform="matrix(1, 0, 0, 1, 663, 954)"><g clip-path="url(#ad1f6446cc)"><g clip-path="url(#ed3982ccdd)"><g clip-path="url(#e51b195451)"><path fill="#fbb03b" d="M 0.507812 0.734375 L 141.929688 0.734375 L 141.929688 82.460938 L 0.507812 82.460938 Z M 0.507812 0.734375 " fill-opacity="1" fill-rule="nonzero"/></g></g></g></g></g></g><path fill="#234777" d="M 623.164062 824.398438 C 608.632812 803.050781 592.425781 784.050781 578.453125 768.289062 C 577.449219 768.738281 576.332031 769.183594 575.324219 769.632812 C 536.316406 786.84375 509.828125 808.082031 507.589844 855.585938 C 507.253906 863.296875 509.601562 870.898438 514.410156 876.820312 C 544.363281 914.488281 565.042969 942.207031 571.300781 964.898438 C 601.703125 939.859375 621.039062 900.742188 628.863281 848.65625 C 629.980469 840.269531 627.96875 831.554688 623.164062 824.398438 Z M 623.164062 824.398438 " fill-opacity="1" fill-rule="nonzero"/><path fill="#234777" d="M 557.441406 573.246094 C 559.566406 538.484375 533.074219 508.53125 498.203125 506.519531 C 463.328125 504.507812 433.484375 530.886719 431.472656 565.757812 C 429.351562 600.519531 455.839844 630.472656 490.714844 632.484375 C 525.363281 634.5 555.316406 608.007812 557.441406 573.246094 Z M 557.441406 573.246094 " fill-opacity="1" fill-rule="nonzero"/><path fill="#fbb03b" d="M 560.234375 651.710938 C 476.964844 666.6875 417.054688 754.429688 483.558594 838.371094 C 488.140625 844.183594 492.613281 849.773438 496.972656 855.136719 C 499.65625 800.925781 531.398438 777.566406 570.964844 760.019531 C 606.84375 744.148438 649.316406 733.082031 682.515625 707.933594 C 751.476562 655.734375 729.460938 573.695312 729.460938 573.695312 C 695.257812 634.832031 627.074219 639.640625 560.234375 651.710938 Z M 560.234375 651.710938 " fill-opacity="1" fill-rule="nonzero"/><g clip-path="url(#78bb9e3ec7)"><path fill="#fbb03b" d="M 573.203125 976.855469 C 512.285156 1022.90625 424.320312 1011.617188 364.1875 988.035156 C 422.308594 1085.949219 580.355469 1103.832031 642.613281 1004.800781 C 676.703125 950.703125 664.519531 896.714844 639.148438 850.441406 C 629.871094 912.699219 605.28125 952.714844 573.203125 976.855469 Z M 573.203125 976.855469 " fill-opacity="1" fill-rule="nonzero"/></g><g clip-path="url(#a39db7a7ba)"><path fill="#fbb03b" d="M 794.511719 485.28125 L 742.203125 485.28125 L 725.996094 435.542969 L 709.898438 485.28125 L 657.589844 485.28125 L 699.839844 516.019531 L 683.746094 565.757812 L 725.996094 535.019531 L 768.355469 565.757812 L 752.148438 516.019531 Z M 794.511719 485.28125 " fill-opacity="1" fill-rule="nonzero"/></g><g clip-path="url(#26eb2168bf)"><g clip-path="url(#0c0fb416a3)"><g clip-path="url(#048cc9fa2d)"><path fill="#fbb03b" d="M 445.675781 478.167969 L 465.53125 455.683594 L 435.664062 458.964844 L 415.875 481.570312 Z M 491.167969 495.179688 L 485.238281 483.804688 L 391.085938 494.566406 L 430.65625 449.355469 L 490.375 442.800781 L 459.292969 477.996094 L 477.484375 475.917969 L 520.546875 427.15625 L 424.574219 437.691406 L 360.984375 510.34375 L 473.121094 497.53125 L 462.210938 509.882812 L 403.847656 516.550781 L 420.460938 548.417969 L 478.824219 541.746094 L 517.710938 497.714844 L 501.097656 465.851562 L 491.066406 477.207031 L 497.785156 490.09375 L 494.144531 490.347656 Z M 491.167969 495.179688 " fill-opacity="1" fill-rule="evenodd"/></g></g></g><g transform="matrix(1, 0, 0, 1, 647, 641)"><g clip-path="url(#a7252f7bc9)"><g fill="#ffffff" fill-opacity="1"><g transform="translate(0.85197, 144.381372)"><g><path d="M 58.019531 -52.582031 L 58.019531 6.683594 L 7.574219 6.683594 L 7.574219 -142.6875 L 53.644531 -142.6875 L 87.507812 -87.636719 C 89.9375 -83.875 92.175781 -80.070312 94.222656 -76.222656 C 96.265625 -72.378906 98.097656 -68.59375 99.714844 -64.867188 L 93.578125 -62.207031 L 91.957031 -68.695312 L 92.671875 -68.871094 L 94.292969 -62.386719 L 87.621094 -61.957031 C 87.382812 -65.671875 87.171875 -69.328125 86.992188 -72.925781 C 86.808594 -76.601562 86.71875 -80.277344 86.71875 -83.953125 L 86.71875 -142.6875 L 137.160156 -142.6875 L 137.160156 6.683594 L 91.070312 6.683594 L 57.210938 -48.929688 C 54.890625 -52.839844 52.699219 -56.667969 50.644531 -60.421875 C 48.566406 -64.207031 46.671875 -67.871094 44.957031 -71.421875 L 50.980469 -74.328125 L 52.601562 -67.84375 L 51.886719 -67.664062 L 50.265625 -74.152344 L 56.917969 -74.816406 C 57.285156 -71.140625 57.5625 -67.433594 57.746094 -63.695312 C 57.929688 -59.960938 58.019531 -56.257812 58.019531 -52.582031 Z M 44.652344 -52.582031 C 44.652344 -56.039062 44.5625 -59.523438 44.390625 -63.039062 C 44.21875 -66.550781 43.960938 -70.03125 43.613281 -73.484375 L 43.039062 -79.234375 L 54.632812 -82.132812 L 57 -77.234375 C 58.613281 -73.894531 60.402344 -70.429688 62.367188 -66.847656 C 64.347656 -63.230469 66.4375 -59.574219 68.632812 -55.882812 L 100.539062 -3.476562 L 94.828125 0 L 94.828125 -6.683594 L 130.476562 -6.683594 L 130.476562 0 L 123.792969 0 L 123.792969 -136.003906 L 130.476562 -136.003906 L 130.476562 -129.316406 L 93.402344 -129.316406 L 93.402344 -136.003906 L 100.085938 -136.003906 L 100.085938 -83.953125 C 100.085938 -80.5 100.171875 -77.046875 100.34375 -73.59375 C 100.523438 -70.0625 100.726562 -66.46875 100.964844 -62.816406 L 101.324219 -57.253906 L 89.699219 -54.347656 L 87.445312 -59.550781 C 85.972656 -62.953125 84.296875 -66.414062 82.421875 -69.941406 C 80.546875 -73.460938 78.449219 -77.023438 76.121094 -80.628906 L 44.214844 -132.5 L 49.910156 -136.003906 L 49.910156 -129.316406 L 14.261719 -129.316406 L 14.261719 -136.003906 L 20.945312 -136.003906 L 20.945312 0 L 14.261719 0 L 14.261719 -6.683594 L 51.335938 -6.683594 L 51.335938 0 L 44.652344 0 Z M 44.652344 -52.582031 "/></g></g></g><g fill="#ffffff" fill-opacity="1"><g transform="translate(145.583519, 144.381372)"><g><path d="M 95.285156 2.554688 C 89.578125 4.585938 83.773438 6.105469 77.867188 7.121094 C 71.96875 8.136719 65.855469 8.644531 59.535156 8.644531 C 41.671875 8.644531 27.367188 3.375 16.617188 -7.171875 C 5.835938 -17.75 0.445312 -31.996094 0.445312 -49.910156 C 0.445312 -66.574219 5.445312 -80.042969 15.441406 -90.3125 C 25.488281 -100.628906 38.878906 -105.789062 55.613281 -105.789062 C 70.617188 -105.789062 82.390625 -101.621094 90.9375 -93.285156 C 99.53125 -84.902344 103.828125 -73.414062 103.828125 -58.820312 C 103.828125 -55.175781 103.570312 -51.535156 103.050781 -47.894531 C 102.527344 -44.226562 101.796875 -40.863281 100.867188 -37.804688 L 99.425781 -33.066406 L 40.820312 -33.066406 L 40.820312 -39.75 L 47.367188 -41.089844 C 48.066406 -37.667969 49.402344 -35.308594 51.367188 -34.007812 C 53.753906 -32.429688 57.726562 -31.640625 63.277344 -31.640625 C 66.9375 -31.640625 70.660156 -31.964844 74.449219 -32.613281 C 78.304688 -33.273438 83.828125 -34.746094 91.023438 -37.03125 L 99.730469 -39.792969 L 99.730469 0.976562 Z M 90.804688 -10.042969 L 93.046875 -3.742188 L 86.359375 -3.742188 L 86.359375 -30.660156 L 93.046875 -30.660156 L 95.066406 -24.289062 C 87.289062 -21.816406 81.167969 -20.199219 76.707031 -19.433594 C 72.171875 -18.660156 67.699219 -18.269531 63.277344 -18.269531 C 55.046875 -18.269531 48.617188 -19.796875 43.996094 -22.855469 C 38.949219 -26.1875 35.707031 -31.375 34.269531 -38.410156 L 32.628906 -46.433594 L 94.472656 -46.433594 L 94.472656 -39.75 L 88.074219 -41.695312 C 88.808594 -44.101562 89.386719 -46.796875 89.8125 -49.785156 C 90.246094 -52.800781 90.460938 -55.8125 90.460938 -58.820312 C 90.460938 -69.65625 87.507812 -77.957031 81.605469 -83.714844 C 75.652344 -89.519531 66.988281 -92.421875 55.613281 -92.421875 C 42.640625 -92.421875 32.441406 -88.609375 25.019531 -80.984375 C 17.550781 -73.3125 13.816406 -62.953125 13.816406 -49.910156 C 13.816406 -35.738281 17.871094 -24.671875 25.980469 -16.714844 C 34.128906 -8.71875 45.3125 -4.722656 59.535156 -4.722656 C 65.09375 -4.722656 70.453125 -5.167969 75.601562 -6.054688 C 80.75 -6.9375 85.820312 -8.269531 90.804688 -10.042969 Z M 61.40625 -63.992188 C 61.40625 -66.304688 60.898438 -67.964844 59.886719 -68.976562 C 58.875 -69.992188 57.214844 -70.496094 54.898438 -70.496094 C 52.3125 -70.496094 50.40625 -69.785156 49.183594 -68.367188 C 47.671875 -66.609375 46.875 -63.679688 46.789062 -59.574219 L 40.105469 -59.710938 L 40.105469 -66.398438 L 67.734375 -66.398438 L 67.734375 -59.710938 L 61.753906 -62.703125 C 61.519531 -62.230469 61.386719 -61.863281 61.359375 -61.609375 C 61.390625 -61.898438 61.40625 -62.691406 61.40625 -63.992188 Z M 74.773438 -63.992188 C 74.773438 -62.199219 74.730469 -60.914062 74.644531 -60.132812 C 74.496094 -58.808594 74.1875 -57.671875 73.714844 -56.722656 L 71.867188 -53.027344 L 33.28125 -53.027344 L 33.421875 -59.851562 C 33.574219 -67.15625 35.449219 -72.898438 39.046875 -77.082031 C 42.9375 -81.605469 48.21875 -83.867188 54.898438 -83.867188 C 60.90625 -83.867188 65.71875 -82.054688 69.339844 -78.433594 C 72.964844 -74.808594 74.773438 -69.996094 74.773438 -63.992188 Z M 74.773438 -63.992188 "/></g></g></g><g fill="#ffffff" fill-opacity="1"><g transform="translate(249.854387, 144.381372)"><g><path d="M 60.265625 -21.992188 L 45.011719 6.683594 L -10.5625 6.683594 L 29.339844 -54.453125 L 34.9375 -50.800781 L 29.410156 -47.039062 L -9.25 -103.828125 L 46.421875 -103.828125 L 61.90625 -77.542969 L 56.148438 -74.152344 L 56.148438 -80.835938 L 56.683594 -80.835938 L 56.683594 -74.152344 L 50.640625 -77.007812 L 63.324219 -103.828125 L 119.058594 -103.828125 L 80.652344 -44.496094 L 75.042969 -48.125 L 80.527344 -51.945312 L 121.351562 6.683594 L 65.445312 6.683594 L 49.265625 -21.835938 L 55.078125 -25.132812 L 55.078125 -18.449219 L 54.367188 -18.449219 L 54.367188 -25.132812 Z M 50.351562 -31.816406 L 58.972656 -31.816406 L 75.152344 -3.296875 L 69.339844 0 L 69.339844 -6.683594 L 108.550781 -6.683594 L 108.550781 0 L 103.066406 3.820312 L 66.992188 -47.992188 L 101.160156 -100.777344 L 106.769531 -97.144531 L 106.769531 -90.460938 L 67.554688 -90.460938 L 67.554688 -97.144531 L 73.597656 -94.289062 L 60.917969 -67.464844 L 52.328125 -67.464844 L 36.839844 -93.75 L 42.601562 -97.144531 L 42.601562 -90.460938 L 3.386719 -90.460938 L 3.386719 -97.144531 L 8.914062 -100.90625 L 42.96875 -50.878906 L 7.378906 3.652344 L 1.78125 0 L 1.78125 -6.683594 L 40.996094 -6.683594 L 40.996094 0 L 35.09375 -3.140625 L 48.464844 -28.273438 Z M 50.351562 -31.816406 "/></g></g></g><g fill="#ffffff" fill-opacity="1"><g transform="translate(360.185455, 144.381372)"><g><path d="M 86.0625 3.964844 C 81.726562 5.542969 77.199219 6.691406 72.488281 7.410156 C 67.875 8.113281 63.140625 8.46875 58.285156 8.46875 C 44.4375 8.46875 33.394531 4.703125 25.167969 -2.820312 C 16.765625 -10.503906 12.566406 -20.910156 12.566406 -34.046875 L 12.566406 -70.40625 L 19.25 -70.40625 L 19.25 -63.722656 L -3.121094 -63.722656 L -3.121094 -103.828125 L 19.25 -103.828125 L 19.25 -97.144531 L 12.566406 -97.144531 L 12.566406 -129.496094 L 61.585938 -129.496094 L 61.585938 -97.144531 L 54.898438 -97.144531 L 54.898438 -103.828125 L 88.679688 -103.828125 L 88.679688 -63.722656 L 54.898438 -63.722656 L 54.898438 -70.40625 L 61.585938 -70.40625 L 61.585938 -45.453125 C 61.585938 -42.738281 61.777344 -40.53125 62.15625 -38.828125 C 62.410156 -37.714844 62.671875 -36.992188 62.945312 -36.667969 C 63.132812 -36.445312 63.488281 -36.242188 64.011719 -36.0625 C 64.984375 -35.726562 66.28125 -35.5625 67.914062 -35.5625 C 69.585938 -35.5625 71.59375 -35.742188 73.925781 -36.105469 C 76.378906 -36.488281 79.105469 -37.066406 82.097656 -37.84375 L 90.460938 -40.011719 L 90.460938 2.363281 Z M 81.492188 -8.597656 L 83.777344 -2.316406 L 77.089844 -2.316406 L 77.089844 -31.371094 L 83.777344 -31.371094 L 85.453125 -24.902344 C 82.03125 -24.011719 78.875 -23.34375 75.980469 -22.894531 C 72.964844 -22.425781 70.277344 -22.191406 67.914062 -22.191406 C 61.09375 -22.191406 56.035156 -24.140625 52.738281 -28.035156 C 49.722656 -31.597656 48.214844 -37.402344 48.214844 -45.453125 L 48.214844 -77.09375 L 81.992188 -77.09375 L 81.992188 -70.40625 L 75.308594 -70.40625 L 75.308594 -97.144531 L 81.992188 -97.144531 L 81.992188 -90.460938 L 48.214844 -90.460938 L 48.214844 -122.8125 L 54.898438 -122.8125 L 54.898438 -116.128906 L 19.25 -116.128906 L 19.25 -122.8125 L 25.933594 -122.8125 L 25.933594 -90.460938 L 3.566406 -90.460938 L 3.566406 -97.144531 L 10.25 -97.144531 L 10.25 -70.40625 L 3.566406 -70.40625 L 3.566406 -77.09375 L 25.933594 -77.09375 L 25.933594 -34.046875 C 25.933594 -24.839844 28.6875 -17.71875 34.191406 -12.6875 C 39.863281 -7.496094 47.898438 -4.902344 58.285156 -4.902344 C 62.464844 -4.902344 66.523438 -5.203125 70.46875 -5.804688 C 74.308594 -6.394531 77.984375 -7.324219 81.492188 -8.597656 Z M 81.492188 -8.597656 "/></g></g></g><g fill="#ffffff" fill-opacity="1"><g transform="translate(0.85197, 281.417607)"><g><path d="M 112.5625 -41.710938 C 112.5625 -25.25 106.878906 -12.667969 95.503906 -3.960938 C 84.679688 4.324219 69.183594 8.46875 49.019531 8.46875 C 41.164062 8.46875 33.84375 7.902344 27.0625 6.773438 C 20.265625 5.640625 13.476562 3.878906 6.695312 1.492188 L 2.226562 -0.078125 L 2.226562 -49.484375 L 12.230469 -43.769531 C 17.527344 -40.742188 23.386719 -38.414062 29.808594 -36.78125 C 36.28125 -35.136719 42.863281 -34.3125 49.554688 -34.3125 C 53.980469 -34.3125 57.074219 -34.867188 58.84375 -35.96875 C 59.261719 -36.230469 59.542969 -36.503906 59.695312 -36.789062 C 59.886719 -37.144531 59.980469 -37.65625 59.980469 -38.324219 C 59.980469 -38.832031 59.5625 -39.460938 58.722656 -40.210938 C 56.984375 -41.769531 52.378906 -44.066406 44.898438 -47.101562 C 36.726562 -50.570312 30.640625 -53.476562 26.648438 -55.820312 C 22.457031 -58.28125 18.808594 -61 15.699219 -63.972656 C 11.199219 -68.332031 7.824219 -73.292969 5.570312 -78.859375 C 3.339844 -84.359375 2.226562 -90.453125 2.226562 -97.144531 C 2.226562 -112.191406 7.800781 -123.945312 18.949219 -132.414062 C 29.535156 -140.453125 44.011719 -144.46875 62.386719 -144.46875 C 69.730469 -144.46875 76.953125 -143.742188 84.050781 -142.285156 C 91.300781 -140.792969 97.632812 -138.664062 103.042969 -135.890625 L 106.679688 -134.027344 L 106.679688 -80.59375 L 95.679688 -89.902344 C 91.695312 -93.273438 86.660156 -95.980469 80.578125 -98.027344 C 74.375 -100.113281 68.132812 -101.15625 61.851562 -101.15625 C 58.050781 -101.15625 55.476562 -100.769531 54.132812 -99.996094 C 54.027344 -99.933594 53.949219 -99.882812 53.90625 -99.839844 C 53.917969 -99.851562 53.933594 -99.871094 53.949219 -99.902344 L 53.960938 -99.90625 C 53.933594 -99.796875 53.921875 -99.648438 53.921875 -99.460938 C 53.921875 -98.703125 54.464844 -97.828125 55.558594 -96.839844 C 57.566406 -95.015625 62.628906 -92.351562 70.742188 -88.84375 C 78.453125 -85.539062 84.234375 -82.78125 88.082031 -80.574219 C 92.078125 -78.28125 95.546875 -75.867188 98.484375 -73.328125 L 98.546875 -73.273438 L 98.609375 -73.214844 C 103.222656 -69.019531 106.703125 -64.300781 109.042969 -59.046875 C 111.390625 -53.785156 112.5625 -48.007812 112.5625 -41.710938 Z M 99.195312 -41.710938 C 99.195312 -46.109375 98.40625 -50.074219 96.832031 -53.605469 C 95.253906 -57.148438 92.847656 -60.386719 89.617188 -63.324219 L 94.113281 -68.269531 L 89.746094 -63.210938 C 87.453125 -65.1875 84.683594 -67.109375 81.429688 -68.976562 C 78.03125 -70.925781 72.699219 -73.457031 65.4375 -76.570312 C 55.964844 -80.667969 49.679688 -84.121094 46.578125 -86.933594 C 42.558594 -90.578125 40.550781 -94.753906 40.550781 -99.460938 C 40.550781 -102.058594 41.136719 -104.390625 42.304688 -106.464844 C 43.496094 -108.585938 45.21875 -110.292969 47.46875 -111.585938 C 50.875 -113.542969 55.671875 -114.523438 61.851562 -114.523438 C 69.59375 -114.523438 77.253906 -113.25 84.835938 -110.699219 C 92.539062 -108.109375 99.03125 -104.582031 104.316406 -100.109375 L 99.996094 -95.007812 L 93.3125 -95.007812 L 93.3125 -129.941406 L 99.996094 -129.941406 L 96.949219 -123.992188 C 92.617188 -126.210938 87.421875 -127.941406 81.363281 -129.1875 C 75.152344 -130.460938 68.824219 -131.101562 62.386719 -131.101562 C 47.011719 -131.101562 35.230469 -127.988281 27.035156 -121.765625 C 19.410156 -115.976562 15.597656 -107.765625 15.597656 -97.144531 C 15.597656 -92.191406 16.382812 -87.769531 17.960938 -83.878906 C 19.507812 -80.058594 21.835938 -76.644531 24.941406 -73.632812 C 27.296875 -71.378906 30.125 -69.285156 33.421875 -67.347656 C 36.914062 -65.296875 42.414062 -62.675781 49.925781 -59.488281 C 58.847656 -55.871094 64.757812 -52.761719 67.652344 -50.160156 C 71.449219 -46.753906 73.347656 -42.808594 73.347656 -38.324219 C 73.347656 -35.425781 72.730469 -32.816406 71.492188 -30.5 C 70.21875 -28.109375 68.367188 -26.15625 65.929688 -24.632812 C 61.992188 -22.171875 56.535156 -20.945312 49.554688 -20.945312 C 41.746094 -20.945312 34.066406 -21.902344 26.515625 -23.824219 C 18.917969 -25.753906 11.945312 -28.535156 5.597656 -32.164062 L 8.914062 -37.964844 L 15.597656 -37.964844 L 15.597656 -4.8125 L 8.914062 -4.8125 L 11.132812 -11.117188 C 17.183594 -8.988281 23.226562 -7.421875 29.261719 -6.414062 C 35.316406 -5.40625 41.902344 -4.902344 49.019531 -4.902344 C 66.164062 -4.902344 78.953125 -8.128906 87.378906 -14.578125 C 95.253906 -20.605469 99.195312 -29.652344 99.195312 -41.710938 Z M 99.195312 -41.710938 "/></g></g></g><g fill="#ffffff" fill-opacity="1"><g transform="translate(115.639076, 281.417607)"><g><path d="M 86.0625 3.964844 C 81.726562 5.542969 77.199219 6.691406 72.488281 7.410156 C 67.875 8.113281 63.140625 8.46875 58.285156 8.46875 C 44.4375 8.46875 33.394531 4.703125 25.167969 -2.820312 C 16.765625 -10.503906 12.566406 -20.910156 12.566406 -34.046875 L 12.566406 -70.40625 L 19.25 -70.40625 L 19.25 -63.722656 L -3.121094 -63.722656 L -3.121094 -103.828125 L 19.25 -103.828125 L 19.25 -97.144531 L 12.566406 -97.144531 L 12.566406 -129.496094 L 61.585938 -129.496094 L 61.585938 -97.144531 L 54.898438 -97.144531 L 54.898438 -103.828125 L 88.679688 -103.828125 L 88.679688 -63.722656 L 54.898438 -63.722656 L 54.898438 -70.40625 L 61.585938 -70.40625 L 61.585938 -45.453125 C 61.585938 -42.738281 61.777344 -40.53125 62.15625 -38.828125 C 62.410156 -37.714844 62.671875 -36.992188 62.945312 -36.667969 C 63.132812 -36.445312 63.488281 -36.242188 64.011719 -36.0625 C 64.984375 -35.726562 66.28125 -35.5625 67.914062 -35.5625 C 69.585938 -35.5625 71.59375 -35.742188 73.925781 -36.105469 C 76.378906 -36.488281 79.105469 -37.066406 82.097656 -37.84375 L 90.460938 -40.011719 L 90.460938 2.363281 Z M 81.492188 -8.597656 L 83.777344 -2.316406 L 77.089844 -2.316406 L 77.089844 -31.371094 L 83.777344 -31.371094 L 85.453125 -24.902344 C 82.03125 -24.011719 78.875 -23.34375 75.980469 -22.894531 C 72.964844 -22.425781 70.277344 -22.191406 67.914062 -22.191406 C 61.09375 -22.191406 56.035156 -24.140625 52.738281 -28.035156 C 49.722656 -31.597656 48.214844 -37.402344 48.214844 -45.453125 L 48.214844 -77.09375 L 81.992188 -77.09375 L 81.992188 -70.40625 L 75.308594 -70.40625 L 75.308594 -97.144531 L 81.992188 -97.144531 L 81.992188 -90.460938 L 48.214844 -90.460938 L 48.214844 -122.8125 L 54.898438 -122.8125 L 54.898438 -116.128906 L 19.25 -116.128906 L 19.25 -122.8125 L 25.933594 -122.8125 L 25.933594 -90.460938 L 3.566406 -90.460938 L 3.566406 -97.144531 L 10.25 -97.144531 L 10.25 -70.40625 L 3.566406 -70.40625 L 3.566406 -77.09375 L 25.933594 -77.09375 L 25.933594 -34.046875 C 25.933594 -24.839844 28.6875 -17.71875 34.191406 -12.6875 C 39.863281 -7.496094 47.898438 -4.902344 58.285156 -4.902344 C 62.464844 -4.902344 66.523438 -5.203125 70.46875 -5.804688 C 74.308594 -6.394531 77.984375 -7.324219 81.492188 -8.597656 Z M 81.492188 -8.597656 "/></g></g></g><g fill="#ffffff" fill-opacity="1"><g transform="translate(204.759478, 281.417607)"><g><path d="M 95.285156 2.554688 C 89.578125 4.585938 83.773438 6.105469 77.867188 7.121094 C 71.96875 8.136719 65.855469 8.644531 59.535156 8.644531 C 41.671875 8.644531 27.367188 3.375 16.617188 -7.171875 C 5.835938 -17.75 0.445312 -31.996094 0.445312 -49.910156 C 0.445312 -66.574219 5.445312 -80.042969 15.441406 -90.3125 C 25.488281 -100.628906 38.878906 -105.789062 55.613281 -105.789062 C 70.617188 -105.789062 82.390625 -101.621094 90.9375 -93.285156 C 99.53125 -84.902344 103.828125 -73.414062 103.828125 -58.820312 C 103.828125 -55.175781 103.570312 -51.535156 103.050781 -47.894531 C 102.527344 -44.226562 101.796875 -40.863281 100.867188 -37.804688 L 99.425781 -33.066406 L 40.820312 -33.066406 L 40.820312 -39.75 L 47.367188 -41.089844 C 48.066406 -37.667969 49.402344 -35.308594 51.367188 -34.007812 C 53.753906 -32.429688 57.726562 -31.640625 63.277344 -31.640625 C 66.9375 -31.640625 70.660156 -31.964844 74.449219 -32.613281 C 78.304688 -33.273438 83.828125 -34.746094 91.023438 -37.03125 L 99.730469 -39.792969 L 99.730469 0.976562 Z M 90.804688 -10.042969 L 93.046875 -3.742188 L 86.359375 -3.742188 L 86.359375 -30.660156 L 93.046875 -30.660156 L 95.066406 -24.289062 C 87.289062 -21.816406 81.167969 -20.199219 76.707031 -19.433594 C 72.171875 -18.660156 67.699219 -18.269531 63.277344 -18.269531 C 55.046875 -18.269531 48.617188 -19.796875 43.996094 -22.855469 C 38.949219 -26.1875 35.707031 -31.375 34.269531 -38.410156 L 32.628906 -46.433594 L 94.472656 -46.433594 L 94.472656 -39.75 L 88.074219 -41.695312 C 88.808594 -44.101562 89.386719 -46.796875 89.8125 -49.785156 C 90.246094 -52.800781 90.460938 -55.8125 90.460938 -58.820312 C 90.460938 -69.65625 87.507812 -77.957031 81.605469 -83.714844 C 75.652344 -89.519531 66.988281 -92.421875 55.613281 -92.421875 C 42.640625 -92.421875 32.441406 -88.609375 25.019531 -80.984375 C 17.550781 -73.3125 13.816406 -62.953125 13.816406 -49.910156 C 13.816406 -35.738281 17.871094 -24.671875 25.980469 -16.714844 C 34.128906 -8.71875 45.3125 -4.722656 59.535156 -4.722656 C 65.09375 -4.722656 70.453125 -5.167969 75.601562 -6.054688 C 80.75 -6.9375 85.820312 -8.269531 90.804688 -10.042969 Z M 61.40625 -63.992188 C 61.40625 -66.304688 60.898438 -67.964844 59.886719 -68.976562 C 58.875 -69.992188 57.214844 -70.496094 54.898438 -70.496094 C 52.3125 -70.496094 50.40625 -69.785156 49.183594 -68.367188 C 47.671875 -66.609375 46.875 -63.679688 46.789062 -59.574219 L 40.105469 -59.710938 L 40.105469 -66.398438 L 67.734375 -66.398438 L 67.734375 -59.710938 L 61.753906 -62.703125 C 61.519531 -62.230469 61.386719 -61.863281 61.359375 -61.609375 C 61.390625 -61.898438 61.40625 -62.691406 61.40625 -63.992188 Z M 74.773438 -63.992188 C 74.773438 -62.199219 74.730469 -60.914062 74.644531 -60.132812 C 74.496094 -58.808594 74.1875 -57.671875 73.714844 -56.722656 L 71.867188 -53.027344 L 33.28125 -53.027344 L 33.421875 -59.851562 C 33.574219 -67.15625 35.449219 -72.898438 39.046875 -77.082031 C 42.9375 -81.605469 48.21875 -83.867188 54.898438 -83.867188 C 60.90625 -83.867188 65.71875 -82.054688 69.339844 -78.433594 C 72.964844 -74.808594 74.773438 -69.996094 74.773438 -63.992188 Z M 74.773438 -63.992188 "/></g></g></g><g clip-path="url(#8b208658a5)"><g fill="#ffffff" fill-opacity="1"><g transform="translate(309.030347, 281.417607)"><g><path d="M 56.59375 -2.671875 L 56.59375 46.613281 L 7.574219 46.613281 L 7.574219 -103.828125 L 56.59375 -103.828125 L 56.59375 -90.015625 L 49.910156 -90.015625 L 53.617188 -95.578125 L 54.152344 -95.21875 L 50.445312 -89.660156 L 45.53125 -94.191406 C 49.085938 -98.042969 53.429688 -100.957031 58.554688 -102.9375 C 63.488281 -104.839844 68.863281 -105.789062 74.6875 -105.789062 C 87.972656 -105.789062 98.671875 -100.347656 106.78125 -89.464844 C 114.4375 -79.1875 118.265625 -66.0625 118.265625 -50.085938 C 118.265625 -33.03125 114.226562 -19.128906 106.144531 -8.371094 C 97.617188 2.972656 86.179688 8.644531 71.832031 8.644531 C 67.832031 8.644531 63.6875 8.101562 59.402344 7.015625 C 55.195312 5.945312 51.332031 4.53125 47.8125 2.769531 L 50.800781 -3.207031 L 54.238281 2.523438 L 53.347656 3.058594 L 49.910156 -2.671875 Z M 43.222656 -6.457031 L 50.507812 -10.828125 L 53.789062 -9.1875 C 56.449219 -7.859375 59.417969 -6.777344 62.695312 -5.945312 C 65.898438 -5.128906 68.945312 -4.722656 71.832031 -4.722656 C 81.730469 -4.722656 89.601562 -8.617188 95.457031 -16.40625 C 101.75 -24.78125 104.898438 -36.007812 104.898438 -50.085938 C 104.898438 -63.105469 101.953125 -73.570312 96.0625 -81.476562 C 90.625 -88.773438 83.5 -92.421875 74.6875 -92.421875 C 70.523438 -92.421875 66.75 -91.769531 63.367188 -90.460938 C 60.175781 -89.230469 57.503906 -87.453125 55.355469 -85.125 L 51.484375 -80.929688 L 43.222656 -86.4375 L 43.222656 -97.144531 L 49.910156 -97.144531 L 49.910156 -90.460938 L 14.261719 -90.460938 L 14.261719 -97.144531 L 20.945312 -97.144531 L 20.945312 39.925781 L 14.261719 39.925781 L 14.261719 33.242188 L 49.910156 33.242188 L 49.910156 39.925781 L 43.222656 39.925781 Z M 60.246094 -65.328125 C 59.042969 -65.328125 58.019531 -65.117188 57.175781 -64.695312 C 56.488281 -64.351562 55.941406 -63.863281 55.53125 -63.226562 L 49.910156 -66.84375 L 56.59375 -66.84375 L 56.59375 -27.984375 L 49.910156 -27.984375 L 53.742188 -33.460938 C 54.242188 -33.113281 54.941406 -32.828125 55.84375 -32.609375 C 57.050781 -32.320312 58.28125 -32.175781 59.535156 -32.175781 C 61.082031 -32.175781 62.390625 -32.445312 63.460938 -32.988281 C 64.480469 -33.503906 65.382812 -34.328125 66.167969 -35.457031 C 68.222656 -38.410156 69.25 -42.871094 69.25 -48.839844 C 69.25 -54.636719 68.25 -59.058594 66.246094 -62.101562 C 65.5 -63.238281 64.65625 -64.0625 63.71875 -64.566406 C 62.777344 -65.074219 61.621094 -65.328125 60.246094 -65.328125 Z M 60.246094 -78.695312 C 63.867188 -78.695312 67.136719 -77.910156 70.054688 -76.339844 C 72.980469 -74.765625 75.433594 -72.464844 77.421875 -69.445312 C 80.886719 -64.171875 82.617188 -57.304688 82.617188 -48.839844 C 82.617188 -40.074219 80.792969 -33.070312 77.144531 -27.820312 C 75.074219 -24.851562 72.53125 -22.597656 69.511719 -21.066406 C 66.539062 -19.558594 63.214844 -18.804688 59.535156 -18.804688 C 57.222656 -18.804688 54.945312 -19.074219 52.707031 -19.613281 C 50.164062 -20.230469 47.953125 -21.191406 46.074219 -22.507812 L 43.222656 -24.503906 L 43.222656 -68.804688 L 44.285156 -70.457031 C 46.015625 -73.148438 48.320312 -75.214844 51.199219 -76.652344 C 53.921875 -78.015625 56.9375 -78.695312 60.246094 -78.695312 Z M 60.246094 -78.695312 "/></g></g></g></g><g fill="#234777" fill-opacity="1"><g transform="translate(0.85197, 144.381372)"><g><path d="M 51.34375 -52.578125 L 51.34375 0 L 14.265625 0 L 14.265625 -136 L 49.90625 -136 L 81.8125 -84.140625 C 84.1875 -80.453125 86.351562 -76.765625 88.3125 -73.078125 C 90.28125 -69.398438 92.035156 -65.773438 93.578125 -62.203125 L 94.296875 -62.390625 C 94.054688 -66.066406 93.847656 -69.6875 93.671875 -73.25 C 93.492188 -76.820312 93.40625 -80.390625 93.40625 -83.953125 L 93.40625 -136 L 130.484375 -136 L 130.484375 0 L 94.828125 0 L 62.921875 -52.40625 C 60.660156 -56.207031 58.519531 -59.945312 56.5 -63.625 C 54.476562 -67.3125 52.640625 -70.878906 50.984375 -74.328125 L 50.265625 -74.15625 C 50.617188 -70.582031 50.882812 -66.984375 51.0625 -63.359375 C 51.25 -59.742188 51.34375 -56.148438 51.34375 -52.578125 Z M 51.34375 -52.578125 "/></g></g></g><g fill="#234777" fill-opacity="1"><g transform="translate(145.583519, 144.381372)"><g><path d="M 93.046875 -3.75 C 87.703125 -1.84375 82.265625 -0.414062 76.734375 0.53125 C 71.210938 1.476562 65.476562 1.953125 59.53125 1.953125 C 43.488281 1.953125 30.742188 -2.675781 21.296875 -11.9375 C 11.847656 -21.207031 7.125 -33.863281 7.125 -49.90625 C 7.125 -64.757812 11.488281 -76.671875 20.21875 -85.640625 C 28.957031 -94.617188 40.753906 -99.109375 55.609375 -99.109375 C 68.804688 -99.109375 79.023438 -95.570312 86.265625 -88.5 C 93.515625 -81.425781 97.140625 -71.535156 97.140625 -58.828125 C 97.140625 -55.492188 96.898438 -52.160156 96.421875 -48.828125 C 95.953125 -45.503906 95.300781 -42.476562 94.46875 -39.75 L 40.8125 -39.75 C 41.882812 -34.519531 44.171875 -30.742188 47.671875 -28.421875 C 51.179688 -26.109375 56.382812 -24.953125 63.28125 -24.953125 C 67.320312 -24.953125 71.421875 -25.304688 75.578125 -26.015625 C 79.734375 -26.734375 85.554688 -28.28125 93.046875 -30.65625 Z M 68.09375 -63.984375 C 68.09375 -68.148438 66.929688 -71.390625 64.609375 -73.703125 C 62.296875 -76.023438 59.0625 -77.1875 54.90625 -77.1875 C 50.269531 -77.1875 46.671875 -75.695312 44.109375 -72.71875 C 41.554688 -69.75 40.222656 -65.414062 40.109375 -59.71875 L 67.734375 -59.71875 C 67.847656 -59.945312 67.9375 -60.328125 68 -60.859375 C 68.0625 -61.398438 68.09375 -62.441406 68.09375 -63.984375 Z M 68.09375 -63.984375 "/></g></g></g><g fill="#234777" fill-opacity="1"><g transform="translate(249.854387, 144.381372)"><g><path d="M 54.359375 -25.140625 L 41 0 L 1.78125 0 L 34.9375 -50.796875 L 3.390625 -97.140625 L 42.609375 -97.140625 L 56.15625 -74.15625 L 56.6875 -74.15625 L 67.5625 -97.140625 L 106.765625 -97.140625 L 75.046875 -48.125 L 108.546875 0 L 69.34375 0 L 55.078125 -25.140625 Z M 54.359375 -25.140625 "/></g></g></g><g fill="#234777" fill-opacity="1"><g transform="translate(360.185455, 144.381372)"><g><path d="M 83.78125 -2.3125 C 79.851562 -0.882812 75.75 0.148438 71.46875 0.796875 C 67.195312 1.453125 62.800781 1.78125 58.28125 1.78125 C 46.164062 1.78125 36.628906 -1.394531 29.671875 -7.75 C 22.722656 -14.113281 19.25 -22.878906 19.25 -34.046875 L 19.25 -70.40625 L 3.5625 -70.40625 L 3.5625 -97.140625 L 19.25 -97.140625 L 19.25 -122.8125 L 54.90625 -122.8125 L 54.90625 -97.140625 L 82 -97.140625 L 82 -70.40625 L 54.90625 -70.40625 L 54.90625 -45.453125 C 54.90625 -39.035156 55.882812 -34.664062 57.84375 -32.34375 C 59.800781 -30.03125 63.15625 -28.875 67.90625 -28.875 C 69.925781 -28.875 72.273438 -29.082031 74.953125 -29.5 C 77.628906 -29.914062 80.570312 -30.539062 83.78125 -31.375 Z M 83.78125 -2.3125 "/></g></g></g><g fill="#234777" fill-opacity="1"><g transform="translate(0.85197, 281.417607)"><g><path d="M 105.875 -41.703125 C 105.875 -27.453125 101.0625 -16.640625 91.4375 -9.265625 C 81.8125 -1.898438 67.671875 1.78125 49.015625 1.78125 C 41.523438 1.78125 34.570312 1.242188 28.15625 0.171875 C 21.738281 -0.890625 15.320312 -2.550781 8.90625 -4.8125 L 8.90625 -37.96875 C 14.726562 -34.632812 21.144531 -32.078125 28.15625 -30.296875 C 35.175781 -28.515625 42.304688 -27.625 49.546875 -27.625 C 55.253906 -27.625 59.535156 -28.515625 62.390625 -30.296875 C 65.242188 -32.078125 66.671875 -34.753906 66.671875 -38.328125 C 66.671875 -40.816406 65.507812 -43.101562 63.1875 -45.1875 C 60.875 -47.269531 55.617188 -49.972656 47.421875 -53.296875 C 39.578125 -56.617188 33.78125 -59.378906 30.03125 -61.578125 C 26.289062 -63.785156 23.054688 -66.191406 20.328125 -68.796875 C 16.515625 -72.484375 13.65625 -76.671875 11.75 -81.359375 C 9.851562 -86.054688 8.90625 -91.316406 8.90625 -97.140625 C 8.90625 -109.972656 13.597656 -119.953125 22.984375 -127.078125 C 32.378906 -134.210938 45.515625 -137.78125 62.390625 -137.78125 C 69.273438 -137.78125 76.046875 -137.097656 82.703125 -135.734375 C 89.359375 -134.367188 95.125 -132.4375 100 -129.9375 L 100 -95 C 95.363281 -98.925781 89.597656 -102.046875 82.703125 -104.359375 C 75.816406 -106.679688 68.867188 -107.84375 61.859375 -107.84375 C 56.859375 -107.84375 53.171875 -107.15625 50.796875 -105.78125 C 48.421875 -104.414062 47.234375 -102.3125 47.234375 -99.46875 C 47.234375 -96.726562 48.507812 -94.195312 51.0625 -91.875 C 53.625 -89.5625 59.300781 -86.503906 68.09375 -82.703125 C 75.582031 -79.492188 81.132812 -76.847656 84.75 -74.765625 C 88.375 -72.691406 91.492188 -70.523438 94.109375 -68.265625 C 98.035156 -64.703125 100.976562 -60.722656 102.9375 -56.328125 C 104.894531 -51.929688 105.875 -47.054688 105.875 -41.703125 Z M 105.875 -41.703125 "/></g></g></g><g fill="#234777" fill-opacity="1"><g transform="translate(115.639076, 281.417607)"><g><path d="M 83.78125 -2.3125 C 79.851562 -0.882812 75.75 0.148438 71.46875 0.796875 C 67.195312 1.453125 62.800781 1.78125 58.28125 1.78125 C 46.164062 1.78125 36.628906 -1.394531 29.671875 -7.75 C 22.722656 -14.113281 19.25 -22.878906 19.25 -34.046875 L 19.25 -70.40625 L 3.5625 -70.40625 L 3.5625 -97.140625 L 19.25 -97.140625 L 19.25 -122.8125 L 54.90625 -122.8125 L 54.90625 -97.140625 L 82 -97.140625 L 82 -70.40625 L 54.90625 -70.40625 L 54.90625 -45.453125 C 54.90625 -39.035156 55.882812 -34.664062 57.84375 -32.34375 C 59.800781 -30.03125 63.15625 -28.875 67.90625 -28.875 C 69.925781 -28.875 72.273438 -29.082031 74.953125 -29.5 C 77.628906 -29.914062 80.570312 -30.539062 83.78125 -31.375 Z M 83.78125 -2.3125 "/></g></g></g><g fill="#234777" fill-opacity="1"><g transform="translate(204.759478, 281.417607)"><g><path d="M 93.046875 -3.75 C 87.703125 -1.84375 82.265625 -0.414062 76.734375 0.53125 C 71.210938 1.476562 65.476562 1.953125 59.53125 1.953125 C 43.488281 1.953125 30.742188 -2.675781 21.296875 -11.9375 C 11.847656 -21.207031 7.125 -33.863281 7.125 -49.90625 C 7.125 -64.757812 11.488281 -76.671875 20.21875 -85.640625 C 28.957031 -94.617188 40.753906 -99.109375 55.609375 -99.109375 C 68.804688 -99.109375 79.023438 -95.570312 86.265625 -88.5 C 93.515625 -81.425781 97.140625 -71.535156 97.140625 -58.828125 C 97.140625 -55.492188 96.898438 -52.160156 96.421875 -48.828125 C 95.953125 -45.503906 95.300781 -42.476562 94.46875 -39.75 L 40.8125 -39.75 C 41.882812 -34.519531 44.171875 -30.742188 47.671875 -28.421875 C 51.179688 -26.109375 56.382812 -24.953125 63.28125 -24.953125 C 67.320312 -24.953125 71.421875 -25.304688 75.578125 -26.015625 C 79.734375 -26.734375 85.554688 -28.28125 93.046875 -30.65625 Z M 68.09375 -63.984375 C 68.09375 -68.148438 66.929688 -71.390625 64.609375 -73.703125 C 62.296875 -76.023438 59.0625 -77.1875 54.90625 -77.1875 C 50.269531 -77.1875 46.671875 -75.695312 44.109375 -72.71875 C 41.554688 -69.75 40.222656 -65.414062 40.109375 -59.71875 L 67.734375 -59.71875 C 67.847656 -59.945312 67.9375 -60.328125 68 -60.859375 C 68.0625 -61.398438 68.09375 -62.441406 68.09375 -63.984375 Z M 68.09375 -63.984375 "/></g></g></g><g fill="#234777" fill-opacity="1"><g transform="translate(309.030347, 281.417607)"><g><path d="M 49.90625 -2.671875 L 49.90625 39.921875 L 14.265625 39.921875 L 14.265625 -97.140625 L 49.90625 -97.140625 L 49.90625 -90.015625 L 50.4375 -89.65625 C 53.289062 -92.75 56.796875 -95.097656 60.953125 -96.703125 C 65.117188 -98.304688 69.695312 -99.109375 74.6875 -99.109375 C 85.738281 -99.109375 94.648438 -94.5625 101.421875 -85.46875 C 108.191406 -76.375 111.578125 -64.582031 111.578125 -50.09375 C 111.578125 -34.519531 107.984375 -21.953125 100.796875 -12.390625 C 93.609375 -2.828125 83.953125 1.953125 71.828125 1.953125 C 68.390625 1.953125 64.796875 1.476562 61.046875 0.53125 C 57.304688 -0.414062 53.890625 -1.660156 50.796875 -3.203125 Z M 60.25 -72.015625 C 57.988281 -72.015625 55.96875 -71.566406 54.1875 -70.671875 C 52.40625 -69.785156 50.976562 -68.507812 49.90625 -66.84375 L 49.90625 -27.984375 C 51.09375 -27.148438 52.546875 -26.523438 54.265625 -26.109375 C 55.992188 -25.691406 57.75 -25.484375 59.53125 -25.484375 C 64.757812 -25.484375 68.800781 -27.53125 71.65625 -31.625 C 74.507812 -35.726562 75.9375 -41.46875 75.9375 -48.84375 C 75.9375 -55.96875 74.566406 -61.609375 71.828125 -65.765625 C 69.097656 -69.929688 65.238281 -72.015625 60.25 -72.015625 Z M 60.25 -72.015625 "/></g></g></g></g></g><g transform="matrix(1, 0, 0, 1, 684, 963)"><g clip-path="url(#fd9819f38c)"><g fill="#234777" fill-opacity="1"><g transform="translate(1.19473, 50.980187)"><g><path d="M 21.828125 0.828125 C 17.972656 0.828125 14.5 0.0195312 11.40625 -1.59375 C 8.3125 -3.207031 5.890625 -5.460938 4.140625 -8.359375 C 2.390625 -11.253906 1.515625 -14.546875 1.515625 -18.234375 C 1.515625 -21.910156 2.390625 -25.195312 4.140625 -28.09375 C 5.890625 -30.988281 8.3125 -33.242188 11.40625 -34.859375 C 14.5 -36.472656 17.972656 -37.28125 21.828125 -37.28125 C 25.359375 -37.28125 28.515625 -36.65625 31.296875 -35.40625 C 34.078125 -34.15625 36.367188 -32.351562 38.171875 -30 L 30.40625 -23.078125 C 28.15625 -25.921875 25.503906 -27.34375 22.453125 -27.34375 C 19.878906 -27.34375 17.8125 -26.515625 16.25 -24.859375 C 14.6875 -23.210938 13.90625 -21.003906 13.90625 -18.234375 C 13.90625 -15.453125 14.6875 -13.234375 16.25 -11.578125 C 17.8125 -9.929688 19.878906 -9.109375 22.453125 -9.109375 C 25.503906 -9.109375 28.15625 -10.535156 30.40625 -13.390625 L 38.171875 -6.453125 C 36.367188 -4.097656 34.078125 -2.296875 31.296875 -1.046875 C 28.515625 0.203125 25.359375 0.828125 21.828125 0.828125 Z M 21.828125 0.828125 "/></g></g></g><g fill="#234777" fill-opacity="1"><g transform="translate(47.796086, 50.980187)"><g><path d="M 41.921875 -36.453125 L 26.5 0 L 14.421875 0 L -0.984375 -36.453125 L 12.234375 -36.453125 L 20.9375 -15.15625 L 29.84375 -36.453125 Z M 41.921875 -36.453125 "/></g></g></g></g></g></svg>